<svg width="17" height="18" viewBox="0 0 17 18" fill="none" xmlns="http://www.w3.org/2000/svg">
<path d="M9.05158 13.214C9.02121 12.8678 8.71934 12.5975 8.35597 12.5975C8.19957 12.5963 8.04731 12.6477 7.92356 12.7434C7.79982 12.839 7.71176 12.9734 7.67348 13.1251L6.99099 16.4385C6.96842 16.5353 6.95672 16.6343 6.95612 16.7337C6.95612 17.481 7.58161 18 8.35597 18C9.13033 18 9.7562 17.481 9.7562 16.7337C9.75579 16.6139 9.73952 16.4947 9.70782 16.3793L9.05158 13.214ZM14.2141 14.6959C14.1446 14.6351 14.0699 14.5804 13.991 14.5324L11.3837 12.7126C11.1298 12.5536 10.8587 12.5577 10.6618 12.7501C10.5759 12.8318 10.5214 12.9411 10.5077 13.0588C10.4939 13.1766 10.522 13.2955 10.5868 13.3947L12.5555 15.9822C12.6007 16.0448 12.6508 16.1036 12.7055 16.158C13.0468 16.539 13.8035 16.56 14.2194 16.158C14.6296 15.747 14.6247 15.0184 14.2141 14.6959ZM16.1735 11.9975H13.5327C13.3621 11.9975 13.1998 12.1231 13.1998 12.3031C13.1998 12.4831 13.3104 12.5975 13.4593 12.6466L15.9503 13.4172C16.3122 13.5001 16.7997 13.1791 16.7997 12.7767C16.7997 12.2656 16.5147 11.9975 16.1735 11.9975ZM3.60818 12.3031C3.60818 12.1175 3.43756 11.9975 3.25381 11.9975H0.613114C0.280495 11.9975 0 12.3567 0 12.7591C0 13.1615 0.473241 13.5001 0.836234 13.4172L3.36481 12.6466C3.52943 12.5975 3.60818 12.4876 3.60818 12.3031ZM5.42052 12.7145L2.81245 14.5279C2.73146 14.5734 2.65596 14.628 2.58745 14.6907C2.4881 14.7831 2.40886 14.895 2.35468 15.0194C2.30049 15.1438 2.27253 15.278 2.27253 15.4137C2.27253 15.5494 2.30049 15.6836 2.35468 15.808C2.40886 15.9324 2.4881 16.0443 2.58745 16.1367C2.79212 16.3297 3.06284 16.4372 3.34419 16.4372C3.62554 16.4372 3.89625 16.3297 4.10092 16.1367C4.15667 16.0833 4.20692 16.0245 4.25092 15.9612L6.22113 13.3876C6.35238 13.1787 6.33063 12.9196 6.14614 12.7501C6.04892 12.6593 5.92269 12.606 5.78985 12.5994C5.65701 12.5929 5.52616 12.6337 5.42052 12.7145ZM9.80457 8.4898C10.1796 8.28656 10.5339 8.09456 10.8662 7.88381C12.4584 6.87433 13.1998 5.67135 13.1998 4.09638C13.1998 1.67168 11.0972 0.181456 9.11908 0.00895915C8.87571 -0.0124154 8.55659 -0.00679051 8.37247 0.154457C8.18835 0.315704 8.15197 0.625448 8.14185 0.870693C8.0901 2.13104 7.07762 3.08315 6.00439 4.09038C4.95441 5.07662 3.86955 6.09622 3.65281 7.50282C3.33744 9.55328 4.46804 10.7544 5.17003 11.2876C5.37809 11.4459 5.63232 11.5317 5.89377 11.5317C5.98734 11.5316 6.08058 11.5207 6.17164 11.4991C6.34336 11.4589 6.50401 11.381 6.64195 11.271C6.77989 11.1611 6.89168 11.0219 6.96925 10.8635C7.52836 9.7239 8.68559 9.09654 9.80457 8.4898Z" fill="#FFCC00"/>
<path d="M4.04316 5.27161C4.5014 4.68062 5.05564 4.15863 5.5945 3.65351C6.34149 2.95153 7.01235 2.31929 7.33822 1.6338C6.87923 1.35743 6.31224 1.20781 5.59413 1.20781C4.92701 1.20781 4.82952 1.40206 4.82952 1.92255C4.82952 2.39354 4.58465 2.69278 4.29178 3.0719C3.96741 3.49152 3.59991 3.96663 3.59991 4.68175C3.59991 5.06536 3.64829 5.38561 3.75741 5.6706C3.84491 5.5376 3.94016 5.40461 4.04316 5.27161ZM11.1875 8.39043C10.8377 8.61242 10.475 8.80892 10.0907 9.01704C9.00656 9.60503 7.98283 10.16 7.50772 11.1275C7.48569 11.1734 7.46218 11.2185 7.43722 11.2629C7.41649 11.2998 7.4038 11.3406 7.39998 11.3828C7.39617 11.425 7.40133 11.4674 7.4151 11.5075C7.42888 11.5475 7.45097 11.5841 7.47992 11.615C7.50888 11.6459 7.54404 11.6703 7.58309 11.6866C8.04471 11.8779 8.52545 11.9967 9.04219 11.9967C10.1365 12.004 11.1899 11.5816 11.9761 10.8204C12.3659 10.4423 12.6752 9.98931 12.8854 9.48867C13.0957 8.98803 13.2026 8.45006 13.1997 7.90706C13.1995 7.71847 13.1828 7.53026 13.1499 7.34457C13.1402 7.28929 13.1152 7.23783 13.0777 7.19605C13.0402 7.15427 12.9918 7.12384 12.9379 7.10821C12.884 7.09259 12.8268 7.0924 12.7728 7.10767C12.7188 7.12293 12.6701 7.15304 12.6324 7.19457C12.2506 7.62469 11.7725 8.01956 11.1875 8.39043Z" fill="#FFCC00"/>
</svg>
