<svg width="14" height="14" viewBox="0 0 14 14" fill="none" xmlns="http://www.w3.org/2000/svg">
<path d="M13.6534 5.92125L13.5828 5.62156H7.06906V8.37844H10.9609C10.5569 10.2972 8.68188 11.3072 7.15031 11.3072C6.03594 11.3072 4.86125 10.8384 4.08375 10.085C3.67354 9.68113 3.34702 9.20032 3.12287 8.6701C2.89873 8.13987 2.78136 7.57064 2.7775 6.995C2.7775 5.83375 3.29938 4.67219 4.05875 3.90812C4.81813 3.14406 5.965 2.71656 7.10531 2.71656C8.41125 2.71656 9.34719 3.41 9.69719 3.72625L11.6562 1.7775C11.0816 1.2725 9.50281 0 7.04219 0C5.14375 0 3.32344 0.727188 1.99281 2.05344C0.679687 3.35938 0 5.24781 0 7C0 8.75219 0.643125 10.5463 1.91563 11.8625C3.27531 13.2663 5.20094 14 7.18375 14C8.98781 14 10.6978 13.2931 11.9166 12.0106C13.1147 10.7481 13.7344 9.00125 13.7344 7.17C13.7344 6.39906 13.6569 5.94125 13.6534 5.92125Z" fill="#CCCCCC"/>
</svg>
