<svg width="15" height="12" viewBox="0 0 15 12" fill="none" xmlns="http://www.w3.org/2000/svg">
<path d="M15 1.42188C14.4373 1.66637 13.842 1.82744 13.2328 1.90001C13.873 1.52512 14.3545 0.929557 14.5869 0.225005C13.9816 0.57894 13.3205 0.827277 12.6319 0.95938C12.3419 0.655483 11.9932 0.413725 11.6069 0.248801C11.2205 0.0838758 10.8047 -0.00077104 10.3847 5.29201e-06C8.68406 5.29201e-06 7.30781 1.35626 7.30781 3.02813C7.30661 3.26068 7.33325 3.49254 7.38719 3.71876C6.16772 3.66159 4.9736 3.3505 3.88124 2.8054C2.78889 2.26029 1.82234 1.49318 1.04344 0.55313C0.77018 1.01379 0.625666 1.53939 0.625 2.07501C0.625 3.12501 1.17281 4.05313 2 4.59688C1.50991 4.58525 1.02987 4.45554 0.600625 4.21876V4.25626C0.600625 5.72501 1.66313 6.94688 3.06938 7.22501C2.80493 7.2955 2.53243 7.33122 2.25875 7.33126C2.06456 7.33159 1.8708 7.31275 1.68031 7.275C2.07125 8.47813 3.20906 9.35313 4.55688 9.37813C3.46168 10.2222 2.11707 10.6784 0.734375 10.675C0.488943 10.6746 0.243739 10.66 0 10.6313C1.40662 11.5294 3.0417 12.0045 4.71063 12C10.3781 12 13.4744 7.38438 13.4744 3.38126C13.4744 3.25001 13.4709 3.11876 13.4647 2.99063C14.0657 2.56315 14.5856 2.03191 15 1.42188Z" fill="#CCCCCC"/>
</svg>
